<svg xmlns="http://www.w3.org/2000/svg" width="1600" height="980" viewBox="0 0 1600 980" fill="none">
    <style>
      .bg { fill: #f6efe6; }
      .panel { fill: #fffaf5; stroke: #e2d3c4; stroke-width: 2; }
      .soft { fill: #f0e6da; }
      .title { font: 700 34px 'Segoe UI', sans-serif; fill: #1f2733; }
      .subtitle { font: 500 18px 'Segoe UI', sans-serif; fill: #66707c; }
      .section { font: 700 24px 'Segoe UI', sans-serif; fill: #1f2733; }
      .label { font: 600 14px 'Segoe UI', sans-serif; fill: #6b7380; }
      .metric { font: 700 34px 'Segoe UI', sans-serif; fill: #1f2733; }
      .name { font: 700 20px 'Segoe UI', sans-serif; fill: #1f2733; }
      .body { font: 500 16px 'Segoe UI', sans-serif; fill: #46505b; }
      .small { font: 500 13px 'Segoe UI', sans-serif; fill: #66707c; }
      .score { font: 700 28px 'Segoe UI', sans-serif; fill: #1f2733; }
      .chipText { font: 700 13px 'Segoe UI', sans-serif; fill: #1f2733; }
    </style>
    <rect x="0" y="0" width="1600" height="980" rx="0" class="bg" /><text x="64" y="72" class="title">Redveil</text><text x="64" y="106" class="subtitle">Acquisition risk review for Seoul storefronts</text><rect x="64" y="144" width="350" height="102" rx="24" class="panel" /><circle cx="88" cy="173" r="8" fill="#d4572d" /><text x="110" y="180" class="label">Transactions</text><text x="86" y="222" class="metric">12,074</text><rect x="432" y="144" width="350" height="102" rx="24" class="panel" /><circle cx="456" cy="173" r="8" fill="#2c6c7f" /><text x="478" y="180" class="label">Districts</text><text x="454" y="222" class="metric">25</text><rect x="800" y="144" width="350" height="102" rx="24" class="panel" /><circle cx="824" cy="173" r="8" fill="#c99624" /><text x="846" y="180" class="label">Admin-dongs</text><text x="822" y="222" class="metric">428</text><rect x="1168" y="144" width="350" height="102" rx="24" class="panel" /><circle cx="1192" cy="173" r="8" fill="#8b4f81" /><text x="1214" y="180" class="label">Trade areas</text><text x="1190" y="222" class="metric">1,570</text><rect x="64" y="286" width="1472" height="622" rx="30" class="panel" /><text x="96" y="332" class="section">Top risk districts</text><text x="1120" y="332" class="section">Replacement candidates</text><rect x="96" y="372" width="314" height="188" rx="24" class="panel" /><rect x="118" y="394" width="72" height="10" rx="5" fill="#d4572d" /><text x="118" y="436" class="name">서초구</text><text x="118" y="480" class="metric">78.9</text><text x="214" y="478" class="label">Very High</text><rect x="118" y="504" width="124" height="16" rx="8" class="soft" /><text x="130" y="516" class="small">High price</text><rect x="118" y="524" width="124" height="16" rx="8" class="soft" /><text x="130" y="536" class="small">Dense merchants</text><rect x="118" y="544" width="124" height="16" rx="8" class="soft" /><text x="130" y="556" class="small">Thin liquidity</text><rect x="434" y="372" width="314" height="188" rx="24" class="panel" /><rect x="456" y="394" width="72" height="10" rx="5" fill="#c99624" /><text x="456" y="436" class="name">강남구</text><text x="456" y="480" class="metric">71.8</text><text x="552" y="478" class="label">High</text><rect x="456" y="504" width="124" height="16" rx="8" class="soft" /><text x="468" y="516" class="small">High price</text><rect x="456" y="524" width="124" height="16" rx="8" class="soft" /><text x="468" y="536" class="small">Dense merchants</text><rect x="456" y="544" width="124" height="16" rx="8" class="soft" /><text x="468" y="556" class="small">Thin liquidity</text><rect x="772" y="372" width="314" height="188" rx="24" class="panel" /><rect x="794" y="394" width="72" height="10" rx="5" fill="#c99624" /><text x="794" y="436" class="name">중구</text><text x="794" y="480" class="metric">70.2</text><text x="890" y="478" class="label">High</text><rect x="794" y="504" width="124" height="16" rx="8" class="soft" /><text x="806" y="516" class="small">High price</text><rect x="794" y="524" width="124" height="16" rx="8" class="soft" /><text x="806" y="536" class="small">Thin liquidity</text><rect x="96" y="590" width="640" height="278" rx="24" class="panel" /><text x="120" y="630" class="section">Risk queue</text><text x="120" y="676" class="body">서초구</text><text x="260" y="676" class="body">78.9</text><rect x="330" y="664" width="220" height="10" rx="5" fill="#efe7dd" /><rect x="330" y="664" width="220" height="10" rx="5" fill="#d4572d" /><text x="572" y="676" class="small">Very High</text><text x="120" y="710" class="body">강남구</text><text x="260" y="710" class="body">71.8</text><rect x="330" y="698" width="220" height="10" rx="5" fill="#efe7dd" /><rect x="330" y="698" width="200" height="10" rx="5" fill="#c99624" /><text x="572" y="710" class="small">High</text><text x="120" y="744" class="body">중구</text><text x="260" y="744" class="body">70.2</text><rect x="330" y="732" width="220" height="10" rx="5" fill="#efe7dd" /><rect x="330" y="732" width="195" height="10" rx="5" fill="#c99624" /><text x="572" y="744" class="small">High</text><text x="120" y="778" class="body">종로구</text><text x="260" y="778" class="body">67.6</text><rect x="330" y="766" width="220" height="10" rx="5" fill="#efe7dd" /><rect x="330" y="766" width="188" height="10" rx="5" fill="#c99624" /><text x="572" y="778" class="small">High</text><text x="120" y="812" class="body">용산구</text><text x="260" y="812" class="body">64.9</text><rect x="330" y="800" width="220" height="10" rx="5" fill="#efe7dd" /><rect x="330" y="800" width="180" height="10" rx="5" fill="#c99624" /><text x="572" y="812" class="small">High</text><rect x="774" y="372" width="338" height="236" rx="24" class="panel" /><text x="798" y="410" class="section">Memo · 서초구</text><text x="798" y="448" class="metric">Overall 78.9</text><text x="798" y="486" class="small">Price</text><rect x="890" y="476" width="170" height="10" rx="5" fill="#efe7dd" /><rect x="890" y="476" width="167" height="10" rx="5" fill="#d4572d" /><text x="1078" y="486" class="small" text-anchor="end">98.6</text><text x="798" y="514" class="small">Liquidity</text><rect x="890" y="504" width="170" height="10" rx="5" fill="#efe7dd" /><rect x="890" y="504" width="89" height="10" rx="5" fill="#2c6c7f" /><text x="1078" y="514" class="small" text-anchor="end">52.9</text><text x="798" y="542" class="small">Competition</text><rect x="890" y="532" width="170" height="10" rx="5" fill="#efe7dd" /><rect x="890" y="532" width="121" height="10" rx="5" fill="#c99624" /><text x="1078" y="542" class="small" text-anchor="end">71.2</text><text x="798" y="570" class="small">Volatility</text><rect x="890" y="560" width="170" height="10" rx="5" fill="#efe7dd" /><rect x="890" y="560" width="170" height="10" rx="5" fill="#d4572d" /><text x="1078" y="570" class="small" text-anchor="end">100.0</text><rect x="1128" y="372" width="384" height="496" rx="24" class="panel" /><text x="1152" y="410" class="name">서초구</text><text x="1228" y="410" class="label">→ lower-risk options</text><text x="1152" y="468" class="name">금천구</text><text x="1420" y="468" class="score" text-anchor="end">50.2</text><text x="1152" y="496" class="body">lower overall acquisition risk</text><line x1="1152" y1="516" x2="1488" y2="516" stroke="#e9ddd0" stroke-width="1" /><text x="1152" y="546" class="small">Liquidity 64.2</text><text x="1292" y="546" class="small">Competition 53.4</text><text x="1152" y="580" class="name">관악구</text><text x="1420" y="580" class="score" text-anchor="end">50.3</text><text x="1152" y="608" class="body">lower overall acquisition risk</text><line x1="1152" y1="628" x2="1488" y2="628" stroke="#e9ddd0" stroke-width="1" /><text x="1152" y="658" class="small">Liquidity 39.7</text><text x="1292" y="658" class="small">Competition 55.0</text><text x="1152" y="692" class="name">양천구</text><text x="1420" y="692" class="score" text-anchor="end">54.5</text><text x="1152" y="720" class="body">lower overall acquisition risk</text><line x1="1152" y1="740" x2="1488" y2="740" stroke="#e9ddd0" stroke-width="1" /><text x="1152" y="770" class="small">Liquidity 64.8</text><text x="1292" y="770" class="small">Competition 47.2</text></svg>