<svg xmlns="http://www.w3.org/2000/svg" width="1600" height="900" viewBox="0 0 1600 900" fill="none">
    <style>
      .bg { fill: #f6efe6; }
      .panel { fill: #fffaf5; stroke: #e2d3c4; stroke-width: 2; }
      .soft { fill: #f0e6da; }
      .title { font: 700 34px 'Segoe UI', sans-serif; fill: #1f2733; }
      .subtitle { font: 500 18px 'Segoe UI', sans-serif; fill: #66707c; }
      .section { font: 700 24px 'Segoe UI', sans-serif; fill: #1f2733; }
      .label { font: 600 14px 'Segoe UI', sans-serif; fill: #6b7380; }
      .metric { font: 700 34px 'Segoe UI', sans-serif; fill: #1f2733; }
      .name { font: 700 20px 'Segoe UI', sans-serif; fill: #1f2733; }
      .body { font: 500 16px 'Segoe UI', sans-serif; fill: #46505b; }
      .small { font: 500 13px 'Segoe UI', sans-serif; fill: #66707c; }
      .score { font: 700 28px 'Segoe UI', sans-serif; fill: #1f2733; }
      .chipText { font: 700 13px 'Segoe UI', sans-serif; fill: #1f2733; }
    </style>
    <rect x="0" y="0" width="1600" height="900" rx="0" class="bg" /><text x="64" y="72" class="title">Evidence boards</text><text x="64" y="106" class="subtitle">Demand fragility and admin-dong saturation in one glance</text><rect x="64" y="146" width="710" height="694" rx="30" class="panel" /><rect x="826" y="146" width="710" height="694" rx="30" class="panel" /><text x="96" y="190" class="section">Demand fragility</text><text x="858" y="190" class="section">Admin-dong saturation</text><text x="96" y="256" class="name">대원종합시장</text><text x="96" y="282" class="small">전통시장</text><text x="312" y="256" class="score">81.2</text><text x="390" y="256" class="small">Very High</text><rect x="96" y="298" width="240" height="12" rx="6" fill="#efe7dd" /><rect x="96" y="298" width="240" height="12" rx="6" fill="#d4572d" /><text x="372" y="282" class="small">Sales/traffic 93.5</text><text x="372" y="304" class="small">Ticket size 94.9</text><text x="372" y="326" class="small">Service breadth 91.2</text><line x1="96" y1="344" x2="742" y2="344" stroke="#e9ddd0" stroke-width="1" /><text x="96" y="366" class="name">남부종합시장</text><text x="96" y="392" class="small">전통시장</text><text x="312" y="366" class="score">80.8</text><text x="390" y="366" class="small">Very High</text><rect x="96" y="408" width="240" height="12" rx="6" fill="#efe7dd" /><rect x="96" y="408" width="238" height="12" rx="6" fill="#d4572d" /><text x="372" y="392" class="small">Sales/traffic 94.8</text><text x="372" y="414" class="small">Ticket size 99.2</text><text x="372" y="436" class="small">Service breadth 97.2</text><line x1="96" y1="454" x2="742" y2="454" stroke="#e9ddd0" stroke-width="1" /><text x="96" y="476" class="name">동진시장</text><text x="96" y="502" class="small">전통시장</text><text x="312" y="476" class="score">78.6</text><text x="390" y="476" class="small">Very High</text><rect x="96" y="518" width="240" height="12" rx="6" fill="#efe7dd" /><rect x="96" y="518" width="232" height="12" rx="6" fill="#d4572d" /><text x="372" y="502" class="small">Sales/traffic 98.6</text><text x="372" y="524" class="small">Ticket size 96.3</text><text x="372" y="546" class="small">Service breadth 97.2</text><line x1="96" y1="564" x2="742" y2="564" stroke="#e9ddd0" stroke-width="1" /><text x="96" y="586" class="name">백운시장</text><text x="96" y="612" class="small">전통시장</text><text x="312" y="586" class="score">76.1</text><text x="390" y="586" class="small">Very High</text><rect x="96" y="628" width="240" height="12" rx="6" fill="#efe7dd" /><rect x="96" y="628" width="224" height="12" rx="6" fill="#d4572d" /><text x="372" y="612" class="small">Sales/traffic 97.3</text><text x="372" y="634" class="small">Ticket size 78.4</text><text x="372" y="656" class="small">Service breadth 91.2</text><line x1="96" y1="674" x2="742" y2="674" stroke="#e9ddd0" stroke-width="1" /><text x="96" y="696" class="name">청담역 12번</text><text x="96" y="722" class="small">골목상권</text><text x="312" y="696" class="score">74.3</text><text x="390" y="696" class="small">High</text><rect x="96" y="738" width="240" height="12" rx="6" fill="#efe7dd" /><rect x="96" y="738" width="219" height="12" rx="6" fill="#c99624" /><text x="372" y="722" class="small">Sales/traffic 91.8</text><text x="372" y="744" class="small">Ticket size 98.5</text><text x="372" y="766" class="small">Service breadth 97.2</text><text x="858" y="256" class="name">역삼1동</text><text x="1042" y="256" class="small">강남구</text><text x="858" y="282" class="body">Stores 13,380</text><text x="1010" y="282" class="body">Food share 19.8%</text><rect x="858" y="298" width="250" height="12" rx="6" fill="#efe7dd" /><rect x="858" y="298" width="250" height="12" rx="6" fill="#2c6c7f" /><text x="1140" y="274" class="small">경영 컨설팅업:1521 / 부동산 중개/대리업:855</text><text x="1140" y="300" class="small">HHI 3.11</text><line x1="858" y1="344" x2="1504" y2="344" stroke="#e9ddd0" stroke-width="1" /><text x="858" y="366" class="name">가산동</text><text x="1042" y="366" class="small">금천구</text><text x="858" y="392" class="body">Stores 10,017</text><text x="1010" y="392" class="body">Food share 13.8%</text><rect x="858" y="408" width="250" height="12" rx="6" fill="#efe7dd" /><rect x="858" y="408" width="187" height="12" rx="6" fill="#2c6c7f" /><text x="1140" y="384" class="small">경영 컨설팅업:1476 / 광고 대행업:960</text><text x="1140" y="410" class="small">HHI 4.20</text><line x1="858" y1="454" x2="1504" y2="454" stroke="#e9ddd0" stroke-width="1" /><text x="858" y="476" class="name">서교동</text><text x="1042" y="476" class="small">마포구</text><text x="858" y="502" class="body">Stores 8,829</text><text x="1010" y="502" class="body">Food share 29.4%</text><rect x="858" y="518" width="250" height="12" rx="6" fill="#efe7dd" /><rect x="858" y="518" width="164" height="12" rx="6" fill="#2c6c7f" /><text x="1140" y="494" class="small">카페:513 / 백반/한정식:438</text><text x="1140" y="520" class="small">HHI 2.07</text><line x1="858" y1="564" x2="1504" y2="564" stroke="#e9ddd0" stroke-width="1" /><text x="858" y="586" class="name">종로1.2.3.4가동</text><text x="1042" y="586" class="small">종로구</text><text x="858" y="612" class="body">Stores 7,912</text><text x="1010" y="612" class="body">Food share 29.4%</text><rect x="858" y="628" width="250" height="12" rx="6" fill="#efe7dd" /><rect x="858" y="628" width="147" height="12" rx="6" fill="#2c6c7f" /><text x="1140" y="604" class="small">시계/귀금속 소매업:619 / 백반/한정식:575</text><text x="1140" y="630" class="small">HHI 2.48</text><line x1="858" y1="674" x2="1504" y2="674" stroke="#e9ddd0" stroke-width="1" /><text x="858" y="696" class="name">서초3동</text><text x="1042" y="696" class="small">서초구</text><text x="858" y="722" class="body">Stores 6,845</text><text x="1010" y="722" class="body">Food share 15.1%</text><rect x="858" y="738" width="250" height="12" rx="6" fill="#efe7dd" /><rect x="858" y="738" width="127" height="12" rx="6" fill="#2c6c7f" /><text x="1140" y="714" class="small">변호사:1608 / 경영 컨설팅업:494</text><text x="1140" y="740" class="small">HHI 7.28</text></svg>